<?xml version="1.0" encoding="UTF-8" standalone="no"?>
<svg
   xmlns:dc="http://purl.org/dc/elements/1.1/"
   xmlns:cc="http://creativecommons.org/ns#"
   xmlns:rdf="http://www.w3.org/1999/02/22-rdf-syntax-ns#"
   xmlns:svg="http://www.w3.org/2000/svg"
   xmlns="http://www.w3.org/2000/svg"
   viewBox="0 0 108.07103 40.936"
   height="40.936001"
   width="108.07103"
   version="1.1"
   id="svg">
  <metadata
     id="metadata3751">
    <rdf:RDF>
      <cc:Work
         rdf:about="">
        <dc:format>image/svg+xml</dc:format>
        <dc:type
           rdf:resource="http://purl.org/dc/dcmitype/StillImage" />
        <dc:title></dc:title>
      </cc:Work>
    </rdf:RDF>
  </metadata>
  <defs
     id="defs3749" />
  <g
     transform="matrix(0.27275122,0,0,0.27153236,-1.0244216,-17.856267)"
     id="svgg">
    <path
       style="fill:#000000;fill-rule:evenodd;stroke:none"
       d="m 319.75,65.929 c -11.795,0.844 -22.792,4.133 -32.417,9.694 -1.633,0.943 -1.731,1.004 -4.25,2.639 -2.226,1.446 -5.479,3.919 -8,6.082 -3.124,2.682 -9.252,9.32 -10.916,11.826 -0.138,0.207 -0.404,0.572 -0.591,0.812 -0.695,0.887 -2.316,3.319 -2.844,4.268 -0.154,0.275 -0.483,0.8 -0.732,1.167 -0.972,1.431 -3.311,6.028 -4.579,9 -0.43,1.008 -0.882,2.058 -1.005,2.333 -0.123,0.275 -0.277,0.725 -0.343,1 -0.065,0.275 -0.172,0.575 -0.236,0.667 -0.065,0.091 -0.361,0.954 -0.66,1.916 -0.298,0.963 -0.606,1.9 -0.684,2.084 -0.595,1.4 -1.751,6.791 -2.413,11.25 -1.37,9.236 -0.617,21.696 1.819,30.083 0.961,3.307 1.608,5.366 1.94,6.167 0.076,0.183 0.489,1.233 0.918,2.333 0.821,2.106 3.095,6.861 4.225,8.833 0.368,0.642 0.794,1.392 0.947,1.667 2.276,4.084 7.164,10.338 11.404,14.59 2.538,2.545 3.042,2.994 7.196,6.406 0.31,0.255 4.41,3.177 4.804,3.424 0.138,0.087 0.545,0.353 0.906,0.593 0.963,0.64 4.352,2.596 5.543,3.199 0.568,0.288 1.168,0.6 1.333,0.694 0.446,0.252 3.557,1.677 3.661,1.677 0.05,0 0.327,0.11 0.615,0.243 5.274,2.44 12.145,4.262 20.442,5.423 11.534,1.614 27.374,-0.615 38.167,-5.37 0.412,-0.182 1.012,-0.444 1.333,-0.583 3.773,-1.629 9.062,-4.606 12.36,-6.957 0.519,-0.37 1.11,-0.785 1.315,-0.922 5.607,-3.772 14.007,-12.367 17.754,-18.167 0.267,-0.412 0.526,-0.787 0.576,-0.833 0.193,-0.177 1.829,-2.853 1.829,-2.992 0,-0.081 0.06,-0.172 0.133,-0.203 0.461,-0.192 4.182,-7.515 5.278,-10.389 0.245,-0.641 0.547,-1.391 0.671,-1.666 0.124,-0.275 0.279,-0.725 0.344,-1 0.066,-0.275 0.171,-0.575 0.234,-0.667 0.063,-0.092 0.206,-0.504 0.318,-0.917 0.112,-0.412 0.271,-0.9 0.354,-1.083 1.099,-2.433 2.777,-10.695 3.335,-16.417 0.193,-1.985 0.198,-11.214 0.007,-13.333 -0.192,-2.126 -0.639,-5.575 -0.842,-6.5 -0.147,-0.666 -0.34,-1.616 -0.85,-4.167 -0.082,-0.412 -0.258,-1.125 -0.391,-1.583 -0.132,-0.458 -0.402,-1.396 -0.598,-2.083 -2.18,-7.628 -6.668,-17.022 -10.641,-22.273 -0.148,-0.195 -0.382,-0.522 -0.519,-0.725 -0.732,-1.081 -3.467,-4.525 -4.834,-6.087 -1.626,-1.857 -6.483,-6.558 -8.005,-7.747 -0.409,-0.32 -0.894,-0.724 -1.078,-0.897 -0.817,-0.772 -6.413,-4.771 -6.677,-4.771 -0.048,0 -0.177,-0.077 -0.288,-0.172 -0.244,-0.207 -2.249,-1.459 -3.285,-2.049 C 360.862,74.892 355.062,72 354.922,72 354.863,72 354.5,71.857 354.116,71.683 344.553,67.341 331.218,65.108 319.75,65.929 M 39.333,100.502 c -4.104,0.498 -7.75,1.438 -11.583,2.983 -1.057,0.427 -5.25,2.588 -5.25,2.707 0,0.078 -0.077,0.141 -0.17,0.141 -0.151,0 -1.447,0.778 -1.663,0.999 -0.046,0.046 -0.459,0.345 -0.917,0.662 -0.458,0.318 -0.918,0.655 -1.022,0.75 -0.104,0.095 -0.516,0.43 -0.917,0.745 -0.929,0.731 -4.239,4.037 -4.989,4.984 -0.314,0.397 -0.743,0.922 -0.952,1.166 -0.569,0.666 -0.64,0.764 -0.872,1.205 -0.118,0.223 -0.26,0.443 -0.315,0.489 -0.181,0.151 -0.967,1.393 -1.743,2.757 -2.551,4.485 -3.905,8.598 -4.989,15.16 -0.268,1.62 -0.257,10.95 0.015,12.583 0.976,5.871 2.122,9.53 4.322,13.801 0.936,1.817 3.219,5.386 3.805,5.947 0.096,0.093 0.602,0.701 1.122,1.351 0.971,1.213 3.303,3.531 4.597,4.568 0.4,0.321 0.812,0.658 0.916,0.75 1.053,0.93 6.265,4.25 6.672,4.25 0.05,0 0.624,0.259 1.275,0.576 0.651,0.317 1.347,0.625 1.546,0.685 0.199,0.06 0.587,0.21 0.862,0.332 8.14,3.627 22.28,3.609 31.167,-0.04 0.55,-0.226 1.222,-0.499 1.494,-0.607 0.733,-0.291 3.826,-1.812 3.923,-1.929 0.045,-0.055 0.308,-0.213 0.583,-0.351 0.275,-0.137 0.575,-0.306 0.667,-0.376 0.091,-0.07 0.669,-0.457 1.283,-0.861 0.614,-0.404 1.214,-0.815 1.333,-0.914 0.12,-0.099 0.854,-0.681 1.634,-1.293 0.779,-0.612 2.185,-1.865 3.125,-2.785 L 76,169.266 v -14.55 -14.549 H 57.333 38.667 v 4.5 4.5 h 13.75 13.75 v 7.975 7.975 l -0.803,0.733 c -2.257,2.061 -5.148,3.903 -8.114,5.171 -0.642,0.274 -1.317,0.567 -1.5,0.65 -0.87,0.394 -3.341,1.108 -5.187,1.499 -5.28,1.117 -12.851,0.418 -17.338,-1.6 -0.289,-0.13 -0.573,-0.237 -0.631,-0.237 -0.458,0 -5.621,-2.957 -6.094,-3.491 -0.046,-0.052 -0.383,-0.313 -0.75,-0.581 -4.975,-3.636 -9.226,-10.658 -10.855,-17.928 -0.888,-3.966 -1.017,-12.054 -0.235,-14.75 0.08,-0.275 0.195,-0.8 0.256,-1.166 0.4,-2.421 2.086,-6.8 3.626,-9.417 1.676,-2.85 4.615,-6.344 6.729,-8 1.619,-1.269 3.789,-2.728 4.602,-3.094 0.299,-0.134 0.656,-0.316 0.794,-0.403 0.237,-0.151 0.934,-0.462 2.416,-1.08 11.51,-4.797 27.255,-1.065 34,8.059 0.681,0.921 0.252,1.069 4.084,-1.399 0.595,-0.384 1.89,-1.203 2.876,-1.821 l 1.792,-1.123 -0.339,-0.445 c -0.745,-0.974 -3.149,-3.51 -4.329,-4.567 -1.648,-1.476 -2.137,-1.878 -3.504,-2.88 -1.276,-0.936 -2.292,-1.58 -2.493,-1.58 -0.093,0 -0.17,-0.057 -0.171,-0.125 0,-0.132 -2.506,-1.445 -3.916,-2.052 -0.458,-0.197 -1.058,-0.46 -1.333,-0.584 -0.738,-0.332 -3.33,-1.153 -4.667,-1.478 -0.641,-0.156 -1.434,-0.353 -1.761,-0.437 -2.95,-0.759 -9.791,-0.998 -13.989,-0.489 M 92,141.417 v 39.916 h 26.25 26.25 v -4.5 -4.5 H 123.25 102 V 158.667 145 h 20.75 20.75 V 140.5 136 H 122.75 102 V 123.25 110.5 h 21.25 21.25 V 106 101.5 H 118.25 92 v 39.917 m 68,0 v 39.916 h 5.083 5.083 l 0.042,-31.608 0.042,-31.608 0.693,0.983 c 0.381,0.541 1.319,1.821 2.083,2.845 0.765,1.023 1.503,2.026 1.641,2.227 0.137,0.201 0.455,0.638 0.706,0.972 0.683,0.907 0.667,0.886 1.288,1.777 0.317,0.456 0.655,0.92 0.75,1.031 0.095,0.111 0.869,1.161 1.72,2.333 0.851,1.172 2.783,3.819 4.294,5.882 1.512,2.062 2.855,3.9 2.987,4.083 0.131,0.183 0.523,0.722 0.871,1.197 0.349,0.475 1.384,1.89 2.3,3.145 0.917,1.255 2.28,3.116 3.03,4.136 1.379,1.879 2.467,3.369 2.844,3.898 0.179,0.251 1.454,1.967 1.83,2.461 0.071,0.094 0.39,0.544 0.708,1 0.318,0.456 0.638,0.905 0.71,0.996 0.412,0.524 5.988,8.137 6.469,8.834 0.317,0.458 0.617,0.87 0.668,0.916 0.05,0.046 0.35,0.457 0.667,0.913 0.316,0.456 0.633,0.906 0.704,1 0.243,0.32 1.623,2.17 1.83,2.454 0.114,0.155 0.844,1.159 1.624,2.229 0.779,1.07 2.129,2.906 3,4.08 0.87,1.174 1.695,2.3 1.833,2.503 0.137,0.202 0.425,0.582 0.64,0.845 l 0.39,0.476 h 4.818 4.819 V 141.417 101.5 h -5 -5 l -0.006,31.042 c -0.004,24.442 -0.048,30.983 -0.208,30.766 -0.112,-0.152 -0.316,-0.44 -0.453,-0.641 -0.22,-0.321 -1.437,-1.96 -1.796,-2.417 -0.072,-0.092 -0.391,-0.542 -0.709,-1 -0.318,-0.458 -0.618,-0.871 -0.667,-0.917 -0.048,-0.046 -0.908,-1.208 -1.909,-2.583 -1.002,-1.375 -1.862,-2.538 -1.912,-2.583 -0.05,-0.046 -0.351,-0.459 -0.669,-0.917 -0.318,-0.458 -0.637,-0.908 -0.709,-1 -0.214,-0.274 -1.428,-1.913 -3.462,-4.678 -1.055,-1.433 -2.981,-4.041 -4.281,-5.797 -1.301,-1.755 -2.651,-3.588 -3,-4.073 -0.35,-0.484 -0.714,-0.972 -0.809,-1.083 -0.095,-0.111 -0.432,-0.574 -0.75,-1.028 -0.569,-0.815 -0.917,-1.278 -1.244,-1.653 -0.091,-0.106 -0.427,-0.566 -0.745,-1.024 -0.318,-0.457 -0.637,-0.906 -0.709,-0.997 -0.376,-0.48 -1.579,-2.1 -1.796,-2.42 -0.137,-0.202 -0.437,-0.614 -0.666,-0.914 -0.229,-0.3 -0.53,-0.707 -0.667,-0.906 -0.138,-0.198 -0.985,-1.35 -1.883,-2.56 -0.898,-1.21 -1.761,-2.377 -1.917,-2.593 -0.156,-0.216 -0.626,-0.853 -1.046,-1.417 -0.419,-0.563 -1.175,-1.586 -1.68,-2.274 -1.579,-2.15 -5.315,-7.203 -6.12,-8.277 -0.424,-0.565 -0.883,-1.192 -1.021,-1.394 -0.137,-0.201 -0.437,-0.612 -0.666,-0.912 -0.229,-0.3 -0.53,-0.713 -0.667,-0.918 -0.138,-0.205 -0.328,-0.457 -0.423,-0.561 -0.095,-0.103 -0.432,-0.563 -0.75,-1.021 -0.317,-0.458 -0.617,-0.871 -0.666,-0.917 -0.05,-0.046 -0.458,-0.589 -0.908,-1.208 L 170.436,101.5 H 165.218 160 v 39.917 m 203.667,-35.764 v 4.154 l -3.804,5.305 c -2.093,2.917 -6.119,8.53 -8.947,12.471 -2.829,3.942 -6.542,9.117 -8.252,11.5 -1.71,2.384 -4.671,6.509 -6.579,9.167 -1.909,2.658 -5.512,7.683 -8.007,11.167 -2.496,3.483 -5.588,7.795 -6.873,9.583 l -2.335,3.25 22.815,0.042 22.815,0.043 v 4.499 4.499 H 324.75 285 v -4.161 -4.161 l 8.445,-11.797 c 9.811,-13.706 17.915,-25.031 28.595,-39.964 l 7.629,-10.667 -22.334,-0.042 L 285,110.499 v -4.5 -4.499 h 39.333 39.334 v 4.153"
       id="path0" />
    <path
       style="fill:#808080;fill-rule:evenodd;stroke:none"
       d="m 327.888,172.458 c 5.026,0.025 13.201,0.025 18.166,0 4.966,-0.024 0.854,-0.044 -9.137,-0.044 -9.992,0 -14.055,0.02 -9.029,0.044 m -16.68,8.834 c 8.044,0.024 21.207,0.024 29.25,0 8.044,-0.024 1.463,-0.044 -14.625,-0.044 -16.087,0 -22.668,0.02 -14.625,0.044"
       id="path1" />
    <path
       style="fill:#efefef;fill-rule:evenodd;stroke:none"
       d="m 296.5,105.917 v 4.416 l 22.458,-0.041 22.459,-0.041 -22.292,-0.043 -22.292,-0.043 0.003,-3.957 c 10e-4,-2.203 0.073,-4.069 0.16,-4.208 0.14,-0.22 3.564,-0.26 28.623,-0.334 l 28.464,-0.085 -28.791,-0.04 L 296.5,101.5 v 4.417 m 57.011,4.234 c -0.189,0.266 -0.344,0.521 -0.344,0.565 0,0.045 -0.225,0.323 -0.5,0.617 -0.275,0.295 -0.5,0.627 -0.5,0.738 0,0.111 -0.169,0.357 -0.375,0.545 -0.207,0.189 -0.597,0.716 -0.869,1.172 -0.388,0.653 -0.566,0.812 -0.833,0.748 -0.264,-0.063 -0.297,-0.035 -0.148,0.125 0.198,0.213 -0.146,0.885 -0.941,1.839 -0.687,0.824 -2.168,2.972 -2.168,3.145 0,0.097 -0.14,0.252 -0.311,0.343 -0.172,0.092 -0.434,0.424 -0.583,0.738 -0.149,0.314 -0.457,0.748 -0.685,0.964 -0.228,0.216 -0.416,0.455 -0.418,0.529 -0.001,0.075 -0.19,0.382 -0.419,0.683 -0.229,0.3 -0.417,0.633 -0.417,0.739 0,0.106 -0.074,0.192 -0.164,0.192 -0.091,0 -0.372,0.315 -0.625,0.701 -0.254,0.385 -0.63,0.883 -0.836,1.107 -0.206,0.224 -0.375,0.474 -0.375,0.556 0,0.082 -0.384,0.652 -0.853,1.267 -0.871,1.143 -1.121,1.439 -0.921,1.089 0.062,-0.108 0.026,-0.251 -0.081,-0.316 -0.138,-0.085 -0.162,0.008 -0.083,0.321 0.061,0.243 0.05,0.442 -0.024,0.442 -0.074,0 -0.384,0.412 -0.69,0.917 -0.305,0.504 -0.609,0.916 -0.675,0.916 -0.066,0 -0.212,0.203 -0.324,0.45 -0.161,0.353 -0.237,0.399 -0.351,0.213 -0.081,-0.13 -0.205,-0.178 -0.276,-0.107 -0.071,0.071 -0.024,0.194 0.105,0.274 0.304,0.187 -1.092,2.066 -1.437,1.933 -0.127,-0.048 -0.223,0.025 -0.223,0.169 0,0.14 0.075,0.208 0.166,0.152 0.345,-0.213 0.139,0.185 -0.338,0.652 -0.272,0.268 -0.495,0.581 -0.495,0.696 0,0.115 -0.211,0.421 -0.468,0.681 -0.257,0.259 -0.524,0.619 -0.592,0.799 -0.103,0.271 -0.151,0.287 -0.273,0.088 -0.082,-0.132 -0.207,-0.182 -0.278,-0.111 -0.071,0.071 -0.022,0.196 0.109,0.277 0.203,0.125 0.196,0.194 -0.046,0.462 -0.157,0.174 -0.285,0.358 -0.285,0.41 0,0.203 -0.92,1.129 -1.121,1.129 -0.263,0 -0.282,0.283 -0.024,0.368 0.103,0.035 -0.047,0.285 -0.334,0.555 -0.287,0.271 -0.521,0.56 -0.521,0.642 0,0.338 -1.235,1.761 -1.358,1.563 -0.068,-0.111 -0.182,-0.144 -0.253,-0.072 -0.072,0.071 -0.022,0.195 0.109,0.276 0.203,0.126 0.196,0.195 -0.047,0.463 -0.156,0.173 -0.285,0.402 -0.285,0.51 0,0.107 -0.076,0.195 -0.169,0.195 -0.093,0 -0.299,0.213 -0.458,0.473 -0.159,0.26 -0.383,0.441 -0.498,0.403 -0.114,-0.039 -0.208,0.011 -0.208,0.11 0,0.099 0.084,0.181 0.187,0.181 0.127,0 0.119,0.082 -0.025,0.256 -0.117,0.141 -0.333,0.236 -0.479,0.211 -0.147,-0.025 -0.266,0.029 -0.266,0.119 0,0.09 0.059,0.144 0.132,0.12 0.256,-0.086 -0.613,1.307 -1.272,2.037 -0.168,0.187 -0.451,0.621 -0.628,0.965 -0.177,0.344 -0.398,0.625 -0.49,0.625 -0.092,0 -0.238,0.186 -0.324,0.413 -0.105,0.275 -0.243,0.381 -0.413,0.316 -0.14,-0.054 -0.255,-0.015 -0.255,0.087 0,0.101 0.074,0.184 0.165,0.184 0.091,0 -0.172,0.443 -0.583,0.984 -0.412,0.542 -0.75,1.048 -0.752,1.125 -0.004,0.221 -0.83,0.949 -0.83,0.732 0,-0.107 -0.083,-0.143 -0.185,-0.08 -0.126,0.078 -0.129,0.148 -0.01,0.222 0.218,0.134 -0.258,1.176 -0.597,1.306 -0.129,0.049 -0.301,0.266 -0.382,0.481 -0.106,0.277 -0.232,0.359 -0.433,0.281 -0.219,-0.084 -0.259,-0.043 -0.175,0.177 0.124,0.323 -0.095,0.749 -0.76,1.474 -0.252,0.275 -0.458,0.591 -0.458,0.702 0,0.112 -0.188,0.366 -0.417,0.565 -0.229,0.199 -0.417,0.283 -0.417,0.187 0,-0.097 -0.068,-0.134 -0.151,-0.082 -0.083,0.051 -0.114,0.234 -0.069,0.405 0.08,0.306 -1.7,2.988 -1.998,3.011 -0.074,0.005 -0.088,-0.065 -0.032,-0.157 0.057,-0.091 -0.023,-0.166 -0.177,-0.166 -0.222,0 -0.24,0.048 -0.085,0.234 0.2,0.242 -0.653,1.905 -1.002,1.953 -0.084,0.012 -0.227,0.04 -0.319,0.063 -0.092,0.023 -0.213,0.051 -0.27,0.062 -0.057,0.012 -0.019,0.123 0.085,0.249 0.147,0.178 0.021,0.441 -0.577,1.208 -0.421,0.539 -0.874,1.187 -1.006,1.439 -0.132,0.252 -0.318,0.458 -0.413,0.458 -0.095,0 -0.126,-0.075 -0.069,-0.166 0.057,-0.092 -0.023,-0.167 -0.177,-0.167 -0.218,0 -0.238,0.051 -0.092,0.228 0.32,0.385 -0.771,2.105 -1.336,2.105 -0.182,0 -0.284,0.077 -0.227,0.17 0.058,0.093 0.194,0.114 0.302,0.048 0.108,-0.067 -0.047,0.186 -0.345,0.563 -0.298,0.376 -0.542,0.725 -0.542,0.775 0,0.05 -0.225,0.337 -0.5,0.638 -0.431,0.473 -0.653,0.973 -0.43,0.973 0.068,0 1.079,-1.36 2.291,-3.083 0.323,-0.459 2.524,-3.534 4.891,-6.834 2.367,-3.3 4.841,-6.75 5.497,-7.666 0.656,-0.917 2.569,-3.58 4.25,-5.917 1.681,-2.338 5.018,-6.988 7.416,-10.333 2.397,-3.346 5.735,-7.996 7.418,-10.334 1.682,-2.337 3.265,-4.55 3.517,-4.916 0.252,-0.367 1.233,-1.735 2.179,-3.041 1.59,-2.193 2.722,-3.772 5.928,-8.267 0.664,-0.931 1.208,-1.749 1.209,-1.817 0.002,-0.233 -0.142,-0.127 -0.488,0.359 m -17.365,7.482 c -2.8,3.914 -9.654,13.492 -15.23,21.284 -5.576,7.791 -12.766,17.841 -15.978,22.333 -3.212,4.492 -6.425,8.98 -7.139,9.973 l -1.299,1.807 v 4.068 c 0,2.601 0.06,4.069 0.167,4.069 0.099,0 0.166,-0.638 0.166,-1.58 0,-1.285 0.062,-1.681 0.333,-2.125 0.335,-0.548 0.442,-1.128 0.209,-1.13 -0.447,-0.005 -0.797,-3.154 -0.379,-3.413 0.089,-0.055 0.286,-0.362 0.438,-0.682 0.152,-0.32 0.416,-0.657 0.588,-0.749 0.171,-0.091 0.311,-0.248 0.311,-0.347 0,-0.099 0.413,-0.728 0.917,-1.398 0.504,-0.67 0.919,-1.28 0.921,-1.356 0.003,-0.075 0.228,-0.356 0.5,-0.623 0.273,-0.267 0.496,-0.558 0.496,-0.645 0,-0.087 0.412,-0.706 0.916,-1.376 0.504,-0.67 0.917,-1.299 0.917,-1.397 0,-0.099 0.069,-0.179 0.152,-0.179 0.084,0 0.386,-0.357 0.671,-0.792 0.285,-0.435 0.798,-1.175 1.139,-1.643 0.342,-0.468 0.921,-1.293 1.288,-1.833 0.366,-0.54 0.719,-1.022 0.785,-1.072 0.065,-0.049 0.44,-0.565 0.834,-1.148 1.391,-2.061 1.56,-2.298 1.835,-2.573 0.153,-0.153 0.446,-0.577 0.651,-0.942 0.205,-0.365 0.432,-0.664 0.505,-0.664 0.072,0 0.245,-0.219 0.383,-0.487 0.138,-0.267 0.628,-0.977 1.088,-1.577 0.459,-0.6 0.838,-1.15 0.84,-1.222 0.003,-0.072 0.228,-0.349 0.5,-0.617 0.273,-0.267 0.496,-0.57 0.496,-0.672 0,-0.103 0.186,-0.409 0.414,-0.681 0.664,-0.791 2.097,-2.788 2.348,-3.271 0.127,-0.243 0.295,-0.468 0.373,-0.5 0.078,-0.031 0.416,-0.469 0.75,-0.973 0.724,-1.093 1.673,-2.454 2.033,-2.917 0.756,-0.971 1.975,-2.714 2.127,-3.041 0.096,-0.207 0.234,-0.375 0.305,-0.375 0.072,0 0.378,-0.413 0.679,-0.917 0.302,-0.504 0.599,-0.917 0.66,-0.917 0.062,0 0.3,-0.318 0.529,-0.708 0.229,-0.39 0.685,-1.046 1.014,-1.458 0.329,-0.413 0.598,-0.826 0.599,-0.918 0.001,-0.092 0.227,-0.379 0.502,-0.639 0.275,-0.259 0.5,-0.561 0.5,-0.67 0,-0.11 0.225,-0.445 0.5,-0.746 0.275,-0.302 0.5,-0.586 0.5,-0.632 0,-0.046 0.188,-0.33 0.417,-0.631 0.229,-0.3 0.416,-0.587 0.416,-0.637 0,-0.051 0.225,-0.333 0.5,-0.627 0.275,-0.295 0.5,-0.636 0.5,-0.759 0,-0.122 0.137,-0.32 0.305,-0.44 0.167,-0.12 0.578,-0.631 0.912,-1.135 0.334,-0.504 0.911,-1.329 1.283,-1.833 0.785,-1.064 1.482,-2.052 2.417,-3.426 0.367,-0.539 0.787,-1.102 0.934,-1.252 0.147,-0.151 0.442,-0.584 0.656,-0.964 0.213,-0.38 0.442,-0.691 0.508,-0.691 0.066,0 0.308,-0.319 0.537,-0.709 0.229,-0.389 0.685,-1.046 1.014,-1.458 0.329,-0.413 0.598,-0.841 0.599,-0.952 0.001,-0.112 0.142,-0.278 0.314,-0.37 0.171,-0.091 0.431,-0.419 0.577,-0.727 0.147,-0.309 0.439,-0.742 0.651,-0.964 0.431,-0.453 0.889,-1.28 0.773,-1.396 -0.041,-0.042 -2.367,3.127 -5.167,7.042 m -4.107,54.992 22.789,0.043 0.047,4.291 0.048,4.291 0.038,-4.375 0.039,-4.375 -22.875,0.041 -22.875,0.041 22.789,0.043"
       id="path2" />
    <path
       style="fill:#751812;fill-rule:evenodd;stroke:none"
       d="m 363.5,105.784 c -0.046,2.401 -0.026,4.309 0.045,4.238 0.07,-0.07 0.107,-2.035 0.083,-4.367 l -0.045,-4.238 -0.083,4.367 m -3.878,66.674 4.706,0.047 0.047,4.456 0.047,4.456 0.039,-4.542 0.039,-4.542 -4.792,0.039 -4.791,0.039 4.705,0.047"
       id="path3" />
    <path
       style="fill:#615452;fill-rule:evenodd;stroke:none"
       d="m 287.781,110.458 c 1.575,0.027 4.2,0.027 5.833,0 1.633,-0.027 0.344,-0.05 -2.864,-0.05 -3.208,0 -4.544,0.023 -2.969,0.05 m 17.094,0 c 4.56,0.025 12.023,0.025 16.583,0 4.561,-0.024 0.829,-0.045 -8.291,-0.045 -9.121,0 -12.852,0.021 -8.292,0.045"
       id="path4" />
    <path
       style="fill:#336f72;fill-rule:evenodd;stroke:none"
       d=""
       id="path5" />
    <path
       style="fill:#45969b;fill-rule:evenodd;stroke:none"
       d="m 285.073,105.917 c 0,2.475 0.023,3.51 0.051,2.301 0.029,-1.209 0.029,-3.234 10e-4,-4.5 -0.029,-1.266 -0.052,-0.276 -0.052,2.199 m 0.006,71.208 0.004,4.125 5.709,0.003 5.708,0.004 -5.664,-0.048 -5.664,-0.047 -0.049,-4.081 -0.049,-4.081 0.005,4.125"
       id="path6" />
    <path
       style="fill:#ee3124;fill-rule:evenodd;stroke:none"
       d="m 354.167,105.695 v 4.196 l -1.695,2.346 c -0.932,1.29 -1.932,2.684 -2.223,3.096 -0.292,0.413 -1.905,2.663 -3.585,5 -1.68,2.338 -3.591,5 -4.245,5.917 -0.655,0.917 -3.13,4.367 -5.5,7.667 -2.37,3.3 -4.845,6.75 -5.501,7.666 -1.491,2.083 -11.371,15.862 -14.581,20.334 -1.316,1.833 -2.927,4.083 -3.581,5 -0.654,0.916 -1.805,2.51 -2.559,3.541 l -1.369,1.875 4.711,-0.003 4.711,-0.003 1.93,-2.705 c 1.062,-1.488 2.82,-3.943 3.907,-5.455 1.087,-1.513 3.562,-4.963 5.5,-7.667 1.939,-2.704 4.386,-6.117 5.44,-7.583 4.468,-6.222 17.173,-23.934 18.889,-26.334 0.655,-0.916 2.458,-3.429 4.006,-5.583 1.548,-2.154 3.324,-4.626 3.946,-5.492 l 1.132,-1.576 v -4.216 -4.216 h -4.667 -4.666 v 4.195 M 355,176.917 v 4.416 h 4.667 4.666 V 176.917 172.5 H 359.667 355 v 4.417"
       id="path7" />
    <path
       style="fill:#ef5e55;fill-rule:evenodd;stroke:none"
       d=""
       id="path8" />
    <path
       style="fill:#5bc6cc;fill-rule:evenodd;stroke:none"
       d="m 285.167,105.917 v 4.416 h 5.666 5.667 v -4.416 -4.417 h -5.667 -5.666 v 4.417 m 38.916,12.597 c -3.208,4.491 -6.215,8.706 -6.682,9.367 -0.467,0.661 -3.051,4.277 -5.743,8.036 -13.593,18.981 -19.255,26.895 -19.676,27.5 -0.255,0.366 -1.891,2.654 -3.636,5.083 l -3.173,4.417 -0.003,4.125 -0.003,4.125 h 5.666 5.667 v -4.069 -4.068 l 1.299,-1.807 c 0.714,-0.993 3.927,-5.481 7.139,-9.973 5.472,-7.652 19.768,-27.631 31.092,-43.452 2.737,-3.824 5.02,-7.068 5.074,-7.209 0.087,-0.227 -0.536,-0.255 -5.545,-0.248 l -5.642,0.007 -5.834,8.166"
       id="path9" />
    <path
       style="fill:#f68b84;fill-rule:evenodd;stroke:none"
       d="m 354.072,105.667 c 0,2.245 0.024,3.164 0.053,2.041 0.028,-1.123 0.028,-2.96 0,-4.083 -0.029,-1.123 -0.053,-0.204 -0.053,2.042 m -42.353,66.791 c 1.357,0.028 3.532,0.028 4.833,0 1.301,-0.028 0.19,-0.051 -2.469,-0.051 -2.658,0 -3.722,0.023 -2.364,0.051"
       id="path10" />
    <path
       style="fill:#f8b9b4;fill-rule:evenodd;stroke:none"
       d=""
       id="path11" />
  </g>
</svg>
